<svg width="161" height="30" viewBox="0 0 161 30" fill="none" xmlns="http://www.w3.org/2000/svg">
<path d="M120.846 15.9675C118.669 15.9675 117.386 16.9343 116.146 17.8689C114.928 18.7888 113.776 19.656 111.767 19.656C111.544 19.656 111.362 19.8376 111.362 20.0603C111.362 20.2829 111.544 20.4645 111.767 20.4645C114.049 20.4645 115.364 19.4743 116.636 18.5163C117.822 17.6228 118.944 16.7761 120.849 16.7761C121.071 16.7761 121.253 16.5945 121.253 16.3718C121.253 16.1492 121.071 15.9675 120.849 15.9675H120.846ZM120.846 14.3826C118.669 14.3826 117.386 15.3494 116.146 16.2839C114.928 17.2038 113.776 18.071 111.767 18.071C111.544 18.071 111.362 18.2527 111.362 18.4753C111.362 18.698 111.544 18.8796 111.767 18.8796C114.049 18.8796 115.364 17.8894 116.636 16.9314C117.822 16.0378 118.944 15.1912 120.849 15.1912C121.071 15.1912 121.253 15.0095 121.253 14.7869C121.253 14.5642 121.071 14.3826 120.849 14.3826H120.846Z" fill="white"/>
<path d="M100.69 21.4579H94.9943L101.539 13.8319C102.439 12.8036 102.954 11.4999 102.954 10.2548C102.954 6.42283 99.8634 3.53125 95.7619 3.53125C91.6604 3.53125 88.5696 6.42283 88.5696 10.2548C88.5696 11.6406 89.6975 12.7714 91.0832 12.7714C92.469 12.7714 93.4914 11.7372 93.5969 10.3632C93.6877 9.13863 94.5959 8.25094 95.759 8.25094C96.922 8.25094 97.9211 9.20015 97.9211 10.413C97.9211 10.955 97.7511 11.4179 97.4025 11.8251L88.5813 22.1756C88.1799 22.6356 87.9778 23.1571 87.9778 23.7254C87.9778 25.0145 88.9885 26.0223 90.2746 26.0223H100.69C101.941 26.0223 102.954 24.991 102.954 23.7254C102.954 22.4598 101.938 21.4608 100.69 21.4608V21.4579Z" fill="white"/>
<path d="M118.719 18.4843C118.695 18.3173 118.596 18.2352 118.402 18.326C117.872 18.6161 117.377 18.9852 116.896 19.3485C115.631 20.3036 114.195 21.3846 111.767 21.3846C111.708 21.3846 111.652 21.3788 111.559 21.3612C110.41 21.3026 109.543 20.3885 109.543 19.2342C109.543 18.08 110.477 17.1044 111.69 17.1044L111.764 17.0956C113.627 17.0956 114.673 16.3075 115.883 15.3964C116.158 15.1884 116.738 14.7694 116.738 14.7694C116.832 14.7021 116.838 14.5761 116.762 14.5028C116.724 14.4648 116.683 14.4267 116.641 14.3886C115.956 13.747 115.121 13.2343 114.204 12.8915C114.025 12.8271 113.847 12.7597 113.653 12.707L117.362 7.47751C117.717 6.91794 117.928 6.499 117.928 5.91893C117.928 4.64745 116.797 3.53125 115.508 3.53125C114.81 3.53125 114.125 3.85351 113.683 4.39257L106.309 14.787C105.257 16.3339 104.577 17.5848 104.577 19.2372C104.577 22.9784 107.759 26.0223 111.67 26.0223C115.581 26.0223 118.763 22.9784 118.763 19.2372C118.763 19.0087 118.745 18.7655 118.713 18.4872L118.719 18.4843Z" fill="white"/>
<path d="M21.7352 12.2118C21.6356 12.2118 21.5389 12.2294 21.4422 12.2411H15.9257C14.5165 12.2411 13.3769 13.3837 13.3769 14.7899C13.3769 16.1991 14.5194 17.3387 15.9257 17.3387H19.1835V21.8446C18.8583 21.9618 18.454 22.0584 17.9677 22.1405C17.4813 22.2225 16.9745 22.2635 16.4413 22.2635C13.9892 22.2635 12.5859 21.6512 11.3261 20.4237C10.0664 19.1991 9.43648 17.2186 9.43648 14.8134C9.43648 13.4482 9.61519 12.2763 9.9726 11.2919C10.333 10.3105 10.8427 9.49896 11.499 8.86323C12.1581 8.22749 12.9521 7.75875 13.8749 7.45699C14.8007 7.15816 15.8407 7.00582 16.9979 7.00582C18.369 7.00582 19.7049 7.16109 21.0028 7.47457C22.2362 7.77046 23.4608 6.98238 23.6834 5.73435C23.8826 4.61815 23.2147 3.52538 22.1278 3.20898C20.4784 2.73144 18.5858 2.49414 16.4472 2.49414C14.4345 2.49414 12.6415 2.79004 11.0683 3.3789C9.498 3.96776 8.16793 4.79979 7.08103 5.87497C5.99412 6.95016 5.16503 8.248 4.5996 9.76264C4.03418 11.2773 3.75 12.9677 3.75 14.8163C3.75 16.5507 4.03125 18.2938 4.5996 19.7147C5.16796 21.1356 5.9824 22.3573 7.04587 23.3738C8.10934 24.3904 9.40425 25.1844 10.9306 25.7498C12.457 26.3152 13.7372 26.5994 15.6825 26.5994C17.3466 26.5994 18.9491 26.4412 20.4872 26.1277C20.6278 26.0984 20.7655 26.0691 20.9032 26.0398C22.9041 25.5945 24.2869 23.7781 24.2869 21.7303V14.7606C24.2869 13.3515 23.1444 12.2118 21.7381 12.2118H21.7352Z" fill="white"/>
<path d="M41.071 21.5457H32.2234L31.4001 24.1385C31.0427 25.2606 30.0027 26.0193 28.8279 26.0193C26.9441 26.0193 25.6404 24.1414 26.2967 22.3778L32.4519 5.84275C33.1081 4.08495 34.7868 2.91602 36.6618 2.91602C38.5397 2.91602 40.2184 4.08202 40.8718 5.84275L47.027 22.369C47.6861 24.1385 46.3766 26.0223 44.4899 26.0223C43.318 26.0223 42.278 25.2664 41.9147 24.1531L41.0651 21.5457H41.071ZM33.6824 17.037H39.6149L37.0983 8.72261C36.9665 8.29195 36.3571 8.28902 36.2253 8.72261L33.6794 17.037H33.6824Z" fill="white"/>
<path d="M64.649 5.78709C64.649 7.0322 63.6383 8.04293 62.3932 8.04293H57.3102V23.1776C57.3102 24.7479 56.0358 26.0223 54.4655 26.0223C52.8952 26.0223 51.6208 24.7479 51.6208 23.1776V8.04H46.5378C45.2927 8.04 44.282 7.02927 44.282 5.78416C44.282 4.53905 45.2927 3.52832 46.5378 3.52832H62.3932C63.6383 3.52832 64.649 4.53905 64.649 5.78416V5.78709Z" fill="white"/>
<path d="M66.4126 5.65526C66.4126 4.48339 67.3618 3.53125 68.5366 3.53125H81.3656C82.6107 3.53125 83.6214 4.54198 83.6214 5.78709C83.6214 7.0322 82.6107 8.04293 81.3656 8.04293H72.4594C72.2631 8.04293 72.102 8.20406 72.102 8.40035V12.165C72.102 12.3613 72.2631 12.5224 72.4594 12.5224H80.9496C82.1947 12.5224 83.2054 13.5331 83.2054 14.7782C83.2054 16.0233 82.1947 17.0341 80.9496 17.0341H72.4594C72.2631 17.0341 72.102 17.1952 72.102 17.3915V21.1561C72.102 21.3524 72.2631 21.5135 72.4594 21.5135H81.4681C82.7132 21.5135 83.724 22.5243 83.724 23.7694C83.724 25.0145 82.7132 26.0252 81.4681 26.0252H68.5337C67.3618 26.0252 66.4097 25.076 66.4097 23.9012V5.65526H66.4126Z" fill="white"/>
<path d="M127.133 25L127.771 23.043H130.842L131.48 25H133.367L130.438 16.5156H128.176L125.234 25H127.133ZM128.217 21.6719L129.277 18.4258H129.336L130.396 21.6719H128.217ZM136.104 25.1055C137.141 25.1055 137.668 24.5078 137.908 23.9805H137.99V25H139.701V16.5156H137.967V19.7031H137.908C137.68 19.1875 137.17 18.5547 136.104 18.5547C134.698 18.5547 133.514 19.6445 133.514 21.8242C133.514 23.9512 134.651 25.1055 136.104 25.1055ZM135.295 21.8125C135.289 20.7051 135.758 19.9375 136.643 19.9375C137.516 19.9375 138.002 20.6699 138.002 21.8125C138.002 22.9609 137.51 23.7168 136.643 23.7227C135.764 23.7168 135.289 22.9375 135.295 21.8125ZM140.856 25H142.59V21.1797C142.584 20.459 143.041 19.9844 143.633 19.9844C144.225 19.9844 144.624 20.3887 144.618 21.0156V25H146.305V21.1094C146.299 20.4355 146.686 19.9844 147.336 19.9844C147.905 19.9844 148.338 20.3359 148.333 21.0625V25H150.067V20.7227C150.067 19.334 149.241 18.5547 148.063 18.5547C147.131 18.5547 146.405 19.0293 146.141 19.75H146.083C145.872 19.0176 145.221 18.5547 144.348 18.5547C143.493 18.5547 142.848 19.0059 142.579 19.75H142.508V18.6367H140.856V25ZM151.163 25H152.897V18.6367H151.163V25ZM151.081 16.9258C151.081 17.4062 151.509 17.8047 152.03 17.8047C152.546 17.8047 152.973 17.4062 152.968 16.9258C152.973 16.4336 152.546 16.041 152.03 16.0352C151.509 16.041 151.081 16.4336 151.081 16.9258ZM155.739 21.3203C155.739 20.4824 156.237 19.9961 156.958 19.9961C157.679 19.9961 158.101 20.4648 158.106 21.25V25H159.829V20.9453C159.835 19.4629 158.968 18.5547 157.638 18.5547C156.694 18.5547 156.015 19.0176 155.728 19.75H155.657V18.6367H154.005V25H155.739V21.3203Z" fill="#FFC4BC"/>
</svg>
