<svg width="310" height="78" viewBox="0 0 310 78" fill="none" xmlns="http://www.w3.org/2000/svg">
<path d="M302.98 42.5667C297.529 42.5667 294.316 44.9877 291.212 47.328C288.16 49.6317 285.277 51.8033 280.244 51.8033C279.687 51.8033 279.232 52.2581 279.232 52.8157C279.232 53.3733 279.687 53.8281 280.244 53.8281C285.959 53.8281 289.254 51.3484 292.438 48.9494C295.409 46.7118 298.219 44.5915 302.987 44.5915C303.545 44.5915 304 44.1367 304 43.5791C304 43.0215 303.545 42.5667 302.987 42.5667H302.98ZM302.98 38.5977C297.529 38.5977 294.316 41.0187 291.212 43.359C288.16 45.6627 285.277 47.8342 280.244 47.8342C279.687 47.8342 279.232 48.2891 279.232 48.8467C279.232 49.4042 279.687 49.8591 280.244 49.8591C285.959 49.8591 289.254 47.3794 292.438 44.9804C295.409 42.7427 298.219 40.6225 302.987 40.6225C303.545 40.6225 304 40.1677 304 39.6101C304 39.0525 303.545 38.5977 302.987 38.5977H302.98Z" fill="#FF5942"/>
<path d="M252.505 56.3136H238.243L254.633 37.2168C256.885 34.6417 258.177 31.377 258.177 28.259C258.177 18.6629 250.437 11.4219 240.166 11.4219C229.895 11.4219 222.155 18.6629 222.155 28.259C222.155 31.7292 224.979 34.561 228.449 34.561C231.919 34.561 234.48 31.9713 234.744 28.5305C234.971 25.4638 237.246 23.2409 240.158 23.2409C243.071 23.2409 245.573 25.6179 245.573 28.6552C245.573 30.0124 245.147 31.1716 244.274 32.1914L222.184 58.111C221.179 59.2628 220.673 60.5687 220.673 61.992C220.673 65.22 223.204 67.7438 226.424 67.7438H252.505C255.638 67.7438 258.177 65.1613 258.177 61.992C258.177 58.8227 255.631 56.3209 252.505 56.3209V56.3136Z" fill="#FF5942"/>
<path d="M297.654 48.8671C297.595 48.4489 297.346 48.2435 296.861 48.4709C295.534 49.1972 294.294 50.1216 293.09 51.0313C289.921 53.423 286.326 56.1302 280.244 56.1302C280.098 56.1302 279.958 56.1155 279.723 56.0715C276.848 55.9248 274.676 53.6358 274.676 50.7452C274.676 47.8547 277.016 45.4116 280.054 45.4116L280.237 45.3896C284.903 45.3896 287.522 43.4161 290.552 41.1345C291.242 40.6136 292.694 39.5645 292.694 39.5645C292.929 39.3957 292.944 39.0803 292.753 38.8969C292.658 38.8015 292.555 38.7061 292.452 38.6107C290.735 37.0041 288.645 35.7202 286.348 34.8618C285.901 34.7004 285.453 34.5317 284.969 34.3996L294.257 21.3041C295.145 19.9028 295.673 18.8537 295.673 17.4011C295.673 14.2171 292.841 11.4219 289.613 11.4219C287.867 11.4219 286.15 12.2289 285.042 13.5788L266.577 39.6085C263.943 43.4821 262.241 46.6148 262.241 50.7526C262.241 60.1212 270.208 67.7438 280.002 67.7438C289.796 67.7438 297.764 60.1212 297.764 50.7526C297.764 50.1803 297.72 49.5714 297.639 48.8744L297.654 48.8671Z" fill="#FF5942"/>
<path d="M54.7884 33.335C54.539 33.335 54.2969 33.379 54.0548 33.4084H40.2403C36.7114 33.4084 33.8576 36.2696 33.8576 39.7911C33.8576 43.3199 36.7188 46.1738 40.2403 46.1738H48.3984V57.4572C47.5841 57.7507 46.5716 57.9928 45.3538 58.1982C44.1359 58.4036 42.8667 58.5063 41.5315 58.5063C35.3909 58.5063 31.8767 56.973 28.722 53.8991C25.5674 50.8324 23.99 45.873 23.99 39.8498C23.99 36.431 24.4376 33.4964 25.3326 31.0313C26.235 28.5736 27.5115 26.5414 29.1549 24.9494C30.8056 23.3574 32.7938 22.1836 35.1048 21.4279C37.4231 20.6796 40.0275 20.2981 42.9254 20.2981C46.3589 20.2981 49.7043 20.687 52.9543 21.472C56.043 22.2129 59.1096 20.2394 59.6672 17.1141C60.1661 14.3189 58.4933 11.5824 55.7715 10.7901C51.6411 9.59425 46.9018 9 41.5462 9C36.506 9 32.0161 9.74098 28.0764 11.2156C24.1441 12.6902 20.8134 14.7738 18.0915 17.4663C15.3697 20.1587 13.2935 23.4088 11.8776 27.2017C10.4616 30.9947 9.75 35.2278 9.75 39.8571C9.75 44.2003 10.4543 48.5655 11.8776 52.1236C13.3008 55.6818 15.3404 58.7411 18.0035 61.2868C20.6666 63.8326 23.9093 65.8208 27.7316 67.2367C31.5539 68.6526 34.7599 69.3643 39.6313 69.3643C43.7984 69.3643 47.8115 68.9681 51.6631 68.1831C52.0153 68.1097 52.3601 68.0364 52.7049 67.963C57.7157 66.8479 61.1785 62.2993 61.1785 57.1711V39.7177C61.1785 36.1889 58.3173 33.335 54.7958 33.335H54.7884Z" fill="#FF5942"/>
<path d="M103.209 56.7071H81.0529L78.9914 63.1999C78.0963 66.0098 75.4919 67.9099 72.55 67.9099C67.8326 67.9099 64.5679 63.2072 66.2113 58.7907L81.6252 17.3838C83.2685 12.9819 87.4723 10.0547 92.1676 10.0547C96.8703 10.0547 101.074 12.9746 102.71 17.3838L118.124 58.7687C119.775 63.1999 116.495 67.9172 111.771 67.9172C108.836 67.9172 106.232 66.0244 105.322 63.2366L103.194 56.7071H103.209ZM84.7065 45.4164H99.5628L93.2608 24.5955C92.9306 23.5171 91.4046 23.5097 91.0745 24.5955L84.6991 45.4164H84.7065Z" fill="#FF5942"/>
<path d="M162.253 17.2462C162.253 20.3642 159.722 22.8953 156.604 22.8953H143.875V60.7954C143.875 64.7277 140.684 67.9191 136.751 67.9191C132.819 67.9191 129.628 64.7277 129.628 60.7954V22.888H116.899C113.781 22.888 111.25 20.3569 111.25 17.2389C111.25 14.1209 113.781 11.5898 116.899 11.5898H156.604C159.722 11.5898 162.253 14.1209 162.253 17.2389V17.2462Z" fill="#FF5942"/>
<path d="M166.669 16.9166C166.669 13.982 169.046 11.5977 171.988 11.5977H204.114C207.232 11.5977 209.763 14.1287 209.763 17.2467C209.763 20.3647 207.232 22.8958 204.114 22.8958H181.812C181.32 22.8958 180.917 23.2993 180.917 23.7908V33.2182C180.917 33.7097 181.32 34.1132 181.812 34.1132H203.073C206.191 34.1132 208.722 36.6443 208.722 39.7623C208.722 42.8803 206.191 45.4113 203.073 45.4113H181.812C181.32 45.4113 180.917 45.8148 180.917 46.3064V55.7337C180.917 56.2253 181.32 56.6288 181.812 56.6288H204.371C207.489 56.6288 210.02 59.1598 210.02 62.2778C210.02 65.3958 207.489 67.9269 204.371 67.9269H171.981C169.046 67.9269 166.662 65.5499 166.662 62.608V16.9166H166.669Z" fill="#FF5942"/>
</svg>
