<svg width="24" height="24" viewBox="0 0 24 24" fill="none" xmlns="http://www.w3.org/2000/svg">
<path d="M16.3998 13.1H10.8998C10.6081 13.1 10.3283 12.9841 10.122 12.7778C9.9157 12.5715 9.7998 12.2917 9.7998 12C9.7998 11.7083 9.9157 11.4285 10.122 11.2222C10.3283 11.0159 10.6081 10.9 10.8998 10.9H16.3998C16.6915 10.9 16.9713 11.0159 17.1776 11.2222C17.3839 11.4285 17.4998 11.7083 17.4998 12C17.4998 12.2917 17.3839 12.5715 17.1776 12.7778C16.9713 12.9841 16.6915 13.1 16.3998 13.1ZM18.5998 8.7H10.8998C10.6081 8.7 10.3283 8.58411 10.122 8.37782C9.9157 8.17153 9.7998 7.89174 9.7998 7.6C9.7998 7.30826 9.9157 7.02847 10.122 6.82218C10.3283 6.61589 10.6081 6.5 10.8998 6.5H18.5998C18.8915 6.5 19.1713 6.61589 19.3776 6.82218C19.5839 7.02847 19.6998 7.30826 19.6998 7.6C19.6998 7.89174 19.5839 8.17153 19.3776 8.37782C19.1713 8.58411 18.8915 8.7 18.5998 8.7Z" fill="#E5E7EC"/>
<path d="M18.6033 8.7H10.9C10.6083 8.7 10.3285 8.58411 10.1222 8.37782C9.9159 8.17153 9.8 7.89174 9.8 7.6C9.8 7.30827 9.9159 7.02848 10.1222 6.82219C10.3285 6.6159 10.6083 6.5 10.9 6.5H14.2V1H9.8C9.36722 0.999425 8.93856 1.0841 8.5385 1.24918C8.13843 1.41427 7.77481 1.65653 7.46837 1.96215C7.16194 2.26777 6.9187 2.63075 6.75255 3.03037C6.5864 3.42999 6.50058 3.85842 6.5 4.2912V15.3C6.49942 15.7328 6.5841 16.1614 6.74918 16.5615C6.91427 16.9616 7.15653 17.3252 7.46215 17.6316C7.76777 17.9381 8.13075 18.1813 8.53037 18.3475C8.92999 18.5136 9.35842 18.5994 9.7912 18.6H18.6C19.0328 18.6006 19.4614 18.5159 19.8615 18.3508C20.2616 18.1857 20.6252 17.9435 20.9316 17.6379C21.2381 17.3322 21.4813 16.9693 21.6475 16.5696C21.8136 16.17 21.8994 15.7416 21.9 15.3088V8.7H18.6033ZM16.4 13.1H10.9C10.6083 13.1 10.3285 12.9841 10.1222 12.7778C9.9159 12.5715 9.8 12.2917 9.8 12C9.8 11.7083 9.9159 11.4285 10.1222 11.2222C10.3285 11.0159 10.6083 10.9 10.9 10.9H16.4C16.6917 10.9 16.9715 11.0159 17.1778 11.2222C17.3841 11.4285 17.5 11.7083 17.5 12C17.5 12.2917 17.3841 12.5715 17.1778 12.7778C16.9715 12.9841 16.6917 13.1 16.4 13.1Z" fill="#D1D4DD"/>
<path d="M9.8001 18.5999H9.7913C9.35852 18.5993 8.93008 18.5135 8.53046 18.3474C8.13084 18.1812 7.76786 17.938 7.46225 17.6315C7.15663 17.3251 6.91436 16.9615 6.74928 16.5614C6.58419 16.1614 6.49952 15.7327 6.5001 15.2999V5.39991H5.4001C4.96732 5.39933 4.53866 5.484 4.13859 5.64908C3.73853 5.81417 3.3749 6.05644 3.06847 6.36205C2.76204 6.66767 2.5188 7.03065 2.35265 7.43027C2.18649 7.82989 2.10068 8.25832 2.1001 8.6911V19.6999C2.09952 20.1327 2.18419 20.5613 2.34928 20.9614C2.51436 21.3615 2.75663 21.7251 3.06225 22.0315C3.36786 22.338 3.73084 22.5812 4.13046 22.7474C4.53008 22.9135 4.95852 22.9993 5.3913 22.9999H14.2001C14.6329 23.0005 15.0615 22.9158 15.4616 22.7507C15.8617 22.5856 16.2253 22.3434 16.5317 22.0378C16.8382 21.7321 17.0814 21.3692 17.2476 20.9695C17.4137 20.5699 17.4995 20.1415 17.5001 19.7087V18.5999H9.8001Z" fill="#E5E7EC"/>
<path d="M21.9002 8.7H16.4002C15.8167 8.7 15.2571 8.46821 14.8446 8.05563C14.432 7.64305 14.2002 7.08348 14.2002 6.5V1L21.9002 8.7Z" fill="#B8BCC8"/>
</svg>
