<svg width="24" height="24" viewBox="0 0 24 24" fill="none" xmlns="http://www.w3.org/2000/svg">
<path d="M17.9541 2.69413L14.2667 6.38155L6.88842 3.92137C6.68789 3.85448 6.47268 3.84481 6.26695 3.89343C6.06122 3.94204 5.87311 4.04704 5.72374 4.19662L4.70008 5.22027C4.56999 5.3502 4.47334 5.50972 4.4184 5.68518C4.36346 5.86064 4.35187 6.0468 4.38463 6.22772C4.41739 6.40864 4.49353 6.57891 4.60651 6.72397C4.71949 6.86902 4.86595 6.98452 5.03334 7.06057L10.9137 9.73344L6.80085 13.8474C6.63203 14.016 6.41445 14.1273 6.17889 14.1655C5.94333 14.2037 5.70173 14.1668 5.4883 14.0601L4.27129 13.4527C4.05798 13.3463 3.81662 13.3095 3.5813 13.3477C3.34598 13.3858 3.1286 13.497 2.95988 13.6654L2.33204 14.2932C2.11881 14.5065 1.99902 14.7958 1.99902 15.0974C1.99902 15.399 2.11881 15.6882 2.33204 15.9015L8.09861 21.6681C8.3119 21.8813 8.60115 22.0011 8.90274 22.0011C9.20434 22.0011 9.49359 21.8813 9.70688 21.6681L10.3347 21.0402C10.5034 20.8714 10.6147 20.6538 10.6528 20.4183C10.691 20.1827 10.6541 19.9411 10.5474 19.7277L9.94004 18.5118C9.83333 18.2984 9.79644 18.0568 9.83461 17.8212C9.87278 17.5857 9.98408 17.3681 10.1527 17.1993L14.2667 13.0853L16.9395 18.9656C17.0155 19.1331 17.1309 19.2797 17.2759 19.3928C17.4209 19.5059 17.5912 19.5821 17.7721 19.615C17.953 19.6479 18.1392 19.6364 18.3147 19.5815C18.4902 19.5267 18.6498 19.4301 18.7798 19.3L19.8035 18.2764C19.9531 18.127 20.0581 17.9389 20.1067 17.7332C20.1553 17.5274 20.1456 17.3122 20.0787 17.1117L17.6186 9.73344L21.306 6.04602C21.7504 5.60151 22.0001 4.99866 22.0001 4.37007C22.0001 3.74148 21.7504 3.13864 21.306 2.69413C20.8615 2.24968 20.2586 2 19.63 2C19.0015 2 18.3986 2.24968 17.9541 2.69413Z" fill="#FFAA9E"/>
<path d="M16.9395 18.9651L14.2666 13.0848L17.6185 9.73291L20.0787 17.1112C20.1456 17.3117 20.1552 17.5269 20.1066 17.7326C20.058 17.9384 19.953 18.1265 19.8034 18.2759L18.7798 19.2995C18.6498 19.4296 18.4902 19.5262 18.3146 19.581C18.1391 19.6359 17.9529 19.6474 17.772 19.6145C17.5911 19.5816 17.4208 19.5054 17.2758 19.3923C17.1308 19.2792 17.0154 19.1326 16.9395 18.9651Z" fill="#FF5942"/>
<path d="M6.88869 3.92123L14.2669 6.38141L10.9139 9.7333L5.03361 7.06043C4.86622 6.98437 4.71976 6.86887 4.60678 6.72382C4.4938 6.57877 4.41766 6.40849 4.3849 6.22758C4.35214 6.04666 4.36373 5.8605 4.41867 5.68504C4.47361 5.50958 4.57026 5.35005 4.70035 5.22013L5.72401 4.19648C5.87338 4.0469 6.06149 3.9419 6.26722 3.89328C6.47295 3.84466 6.68816 3.85434 6.88869 3.92123Z" fill="#FF5942"/>
</svg>
