<svg width="24" height="24" viewBox="0 0 24 24" fill="none" xmlns="http://www.w3.org/2000/svg">
<path d="M21.0003 18.0009C20.9997 18.5534 20.5514 19.0008 19.9989 19.0002C19.6847 18.9999 19.3889 18.852 19.2002 18.6008C17.4961 16.3397 14.8314 15.0071 12 15.0002H8C7.44803 15.0005 7.00031 14.5533 7 14.0014C7 14.001 7 14.0006 7 14.0002V8.00021C6.99969 7.44824 7.44689 7.00052 7.99886 7.00021C7.99924 7.00021 7.99962 7.00021 8 7.00021H12C14.8314 6.99331 17.4961 5.66076 19.2002 3.39962C19.532 2.95789 20.159 2.86876 20.6007 3.20053C20.8514 3.38879 20.9993 3.68366 21.0003 3.99714C21.0011 4.20731 21.0006 17.7915 21.0003 18.0009Z" fill="#FFAA9E"/>
<path d="M9 15H6C4.34315 15 3 13.6568 3 12V10C3 8.34315 4.34315 7 6 7H9V15ZM20 20C19.448 20.0003 19.0003 19.5531 19 19.0011C19 19.0008 19 19.0004 19 19V3C19 2.44772 19.4477 2 20 2C20.5523 2 21 2.44772 21 3V19C21.0003 19.552 20.5531 19.9997 20.0011 20C20.0008 20 20.0004 20 20 20Z" fill="#FF5942"/>
<path d="M9 15H8H6.48383L4.08106 20.6064C4.02747 20.7312 3.99994 20.8656 4 21.0013C4.00037 21.5533 4.44812 22.0004 5 22H9C9.40021 22.0002 9.76184 21.7616 9.91901 21.3936L12.6424 15.0391C12.4286 15.0232 12.216 15.0005 12 15H9Z" fill="#FFC4BC"/>
</svg>
