<svg width="24" height="24" viewBox="0 0 24 24" fill="none" xmlns="http://www.w3.org/2000/svg">
<path d="M16.4 13.1H10.9C10.6083 13.1 10.3285 12.9841 10.1222 12.7778C9.9159 12.5715 9.8 12.2917 9.8 12C9.8 11.7083 9.9159 11.4285 10.1222 11.2222C10.3285 11.0159 10.6083 10.9 10.9 10.9H16.4C16.6917 10.9 16.9715 11.0159 17.1778 11.2222C17.3841 11.4285 17.5 11.7083 17.5 12C17.5 12.2917 17.3841 12.5715 17.1778 12.7778C16.9715 12.9841 16.6917 13.1 16.4 13.1ZM18.6 8.7H10.9C10.6083 8.7 10.3285 8.58411 10.1222 8.37782C9.9159 8.17153 9.8 7.89174 9.8 7.6C9.8 7.30826 9.9159 7.02847 10.1222 6.82218C10.3285 6.61589 10.6083 6.5 10.9 6.5H18.6C18.8917 6.5 19.1715 6.61589 19.3778 6.82218C19.5841 7.02847 19.7 7.30826 19.7 7.6C19.7 7.89174 19.5841 8.17153 19.3778 8.37782C19.1715 8.58411 18.8917 8.7 18.6 8.7Z" fill="#FFC4BC"/>
<path d="M18.6033 8.7H10.9C10.6083 8.7 10.3285 8.58411 10.1222 8.37782C9.9159 8.17153 9.8 7.89174 9.8 7.6C9.8 7.30827 9.9159 7.02848 10.1222 6.82219C10.3285 6.6159 10.6083 6.5 10.9 6.5H14.2V1H9.8C9.36722 0.999425 8.93856 1.0841 8.5385 1.24918C8.13843 1.41427 7.77481 1.65653 7.46837 1.96215C7.16194 2.26777 6.9187 2.63075 6.75255 3.03037C6.5864 3.42999 6.50058 3.85842 6.5 4.2912V15.3C6.49942 15.7328 6.5841 16.1614 6.74918 16.5615C6.91427 16.9616 7.15653 17.3252 7.46215 17.6316C7.76777 17.9381 8.13075 18.1813 8.53037 18.3475C8.92999 18.5136 9.35842 18.5994 9.7912 18.6H18.6C19.0328 18.6006 19.4614 18.5159 19.8615 18.3508C20.2616 18.1857 20.6252 17.9435 20.9316 17.6379C21.2381 17.3322 21.4813 16.9693 21.6475 16.5696C21.8136 16.17 21.8994 15.7416 21.9 15.3088V8.7H18.6033ZM16.4 13.1H10.9C10.6083 13.1 10.3285 12.9841 10.1222 12.7778C9.9159 12.5715 9.8 12.2917 9.8 12C9.8 11.7083 9.9159 11.4285 10.1222 11.2222C10.3285 11.0159 10.6083 10.9 10.9 10.9H16.4C16.6917 10.9 16.9715 11.0159 17.1778 11.2222C17.3841 11.4285 17.5 11.7083 17.5 12C17.5 12.2917 17.3841 12.5715 17.1778 12.7778C16.9715 12.9841 16.6917 13.1 16.4 13.1Z" fill="#FF8F7F"/>
<path d="M9.8 18.6H9.7912C9.35842 18.5995 8.92998 18.5136 8.53036 18.3475C8.13074 18.1813 7.76777 17.9381 7.46215 17.6317C7.15653 17.3252 6.91427 16.9616 6.74918 16.5615C6.58409 16.1615 6.49942 15.7328 6.5 15.3V5.40003H5.4C4.96722 5.39945 4.53856 5.48412 4.13849 5.64921C3.73843 5.81429 3.3748 6.05656 3.06837 6.36217C2.76194 6.66779 2.5187 7.03077 2.35255 7.43039C2.18639 7.83001 2.10058 8.25844 2.1 8.69123V19.7C2.09942 20.1328 2.18409 20.5615 2.34918 20.9615C2.51426 21.3616 2.75653 21.7252 3.06215 22.0317C3.36776 22.3381 3.73074 22.5813 4.13036 22.7475C4.52998 22.9136 4.95842 22.9994 5.3912 23H14.2C14.6328 23.0006 15.0614 22.9159 15.4615 22.7508C15.8616 22.5858 16.2252 22.3435 16.5316 22.0379C16.8381 21.7323 17.0813 21.3693 17.2475 20.9697C17.4136 20.57 17.4994 20.1416 17.5 19.7088V18.6H9.8Z" fill="#FFC4BC"/>
<path d="M21.9 8.7H16.4C15.8165 8.7 15.2569 8.46821 14.8444 8.05563C14.4318 7.64305 14.2 7.08348 14.2 6.5V1L21.9 8.7Z" fill="#FF5942"/>
</svg>
