<svg width="24" height="24" viewBox="0 0 24 24" fill="none" xmlns="http://www.w3.org/2000/svg">
<path d="M4.03027 16.2427L2.03027 8.24268C1.9837 8.05628 1.99181 7.86041 2.05363 7.6785C2.11544 7.49658 2.22835 7.33632 2.37884 7.21688C2.52934 7.09744 2.71105 7.02388 2.90225 7.00499C3.09345 6.98609 3.28604 7.02267 3.457 7.11035L7.30856 9.08935L11.1748 3.43555C11.2716 3.3085 11.3964 3.20552 11.5396 3.13463C11.6827 3.06374 11.8403 3.02686 12 3.02686C12.1597 3.02686 12.3173 3.06374 12.4604 3.13463C12.6036 3.20552 12.7284 3.3085 12.8252 3.43555L16.6914 9.08936L20.543 7.11036C20.7139 7.02268 20.9065 6.98609 21.0977 7.00498C21.2889 7.02386 21.4707 7.09743 21.6212 7.21687C21.7717 7.33631 21.8846 7.49657 21.9464 7.67849C22.0082 7.86041 22.0163 8.05629 21.9697 8.24269L19.9697 16.2427L4.03027 16.2427Z" fill="#D1D4DD"/>
<path d="M19.9697 16.2427H4.03027L4 16.1216V20C3.99997 20.1313 4.02581 20.2614 4.07605 20.3827C4.12629 20.5041 4.19995 20.6143 4.29282 20.7072C4.38568 20.8001 4.49594 20.8737 4.61728 20.924C4.73862 20.9742 4.86867 21 5 21H19C19.1313 21 19.2614 20.9742 19.3827 20.924C19.5041 20.8737 19.6143 20.8001 19.7072 20.7072C19.8 20.6143 19.8737 20.5041 19.9239 20.3827C19.9742 20.2614 20 20.1313 20 20V16.1216L19.9697 16.2427Z" fill="#B8BCC8"/>
<path d="M12 13C12.5523 13 13 12.5523 13 12C13 11.4477 12.5523 11 12 11C11.4477 11 11 11.4477 11 12C11 12.5523 11.4477 13 12 13Z" fill="#B8BCC8"/>
</svg>
