<svg width="24" height="24" viewBox="0 0 24 24" fill="none" xmlns="http://www.w3.org/2000/svg">
<path d="M21.3164 9.55176L19.4297 8.92285L20.3193 7.14453C20.4132 6.9568 20.4456 6.74428 20.4119 6.53711C20.3783 6.32993 20.2803 6.1386 20.1318 5.99023L18.0103 3.86816C17.8619 3.7197 17.6706 3.6217 17.4634 3.58805C17.2562 3.5544 17.0437 3.5868 16.856 3.68066L15.0776 4.57031L14.4487 2.68359C14.3823 2.4845 14.255 2.31136 14.0847 2.18867C13.9144 2.06598 13.7099 1.99998 13.5 2H10.5C10.2901 1.99998 10.0856 2.06598 9.9153 2.18867C9.74503 2.31136 9.61767 2.4845 9.55127 2.68359L8.92236 4.57031L7.144 3.68066C6.95639 3.58627 6.74375 3.55358 6.53645 3.58725C6.32915 3.62092 6.1378 3.71924 5.98971 3.86816L3.86816 5.99023C3.7197 6.1386 3.6217 6.32993 3.58805 6.53711C3.5544 6.74428 3.5868 6.9568 3.68066 7.14453L4.57031 8.92285L2.68359 9.55176C2.48449 9.61799 2.31131 9.74524 2.18861 9.91545C2.0659 10.0857 1.99991 10.2902 2 10.5V13.5C1.99991 13.7098 2.0659 13.9143 2.18861 14.0846C2.31131 14.2548 2.48449 14.382 2.68359 14.4482L4.57031 15.0772L3.68066 16.8555C3.5868 17.0432 3.5544 17.2557 3.58805 17.4629C3.6217 17.6701 3.7197 17.8614 3.86816 18.0098L5.98975 20.1318C6.13798 20.2805 6.32933 20.3787 6.53656 20.4123C6.74379 20.446 6.95637 20.4135 7.14404 20.3193L8.92236 19.4297L9.55127 21.3164C9.61767 21.5155 9.74503 21.6886 9.9153 21.8113C10.0856 21.934 10.2901 22 10.5 22H13.5C13.7099 22 13.9144 21.934 14.0847 21.8113C14.255 21.6886 14.3823 21.5155 14.4487 21.3164L15.0776 19.4297L16.856 20.3193C17.0437 20.4132 17.2562 20.4456 17.4634 20.4119C17.6705 20.3783 17.8619 20.2803 18.0103 20.1318L20.1318 18.0098C20.2803 17.8614 20.3783 17.6701 20.4119 17.4629C20.4456 17.2557 20.4132 17.0432 20.3193 16.8555L19.4302 15.0772L21.3164 14.4482C21.5155 14.382 21.6887 14.2548 21.8114 14.0846C21.9341 13.9143 22.0001 13.7098 22 13.5V10.5C22.0001 10.2902 21.9341 10.0857 21.8114 9.91545C21.6887 9.74524 21.5155 9.61799 21.3164 9.55176ZM12 15C11.4067 15 10.8266 14.8241 10.3333 14.4944C9.83994 14.1648 9.45542 13.6962 9.22836 13.1481C9.0013 12.5999 8.94189 11.9967 9.05764 11.4147C9.1734 10.8328 9.45912 10.2982 9.87868 9.87868C10.2982 9.45912 10.8328 9.1734 11.4147 9.05764C11.9967 8.94189 12.5999 9.0013 13.1481 9.22836C13.6962 9.45542 14.1648 9.83994 14.4944 10.3333C14.8241 10.8266 15 11.4067 15 12C14.9991 12.7954 14.6827 13.5579 14.1203 14.1203C13.5579 14.6827 12.7954 14.9991 12 15Z" fill="#FFAA9E"/>
<path d="M12 16C11.2089 16 10.4355 15.7654 9.77772 15.3259C9.11993 14.8864 8.60723 14.2616 8.30448 13.5307C8.00173 12.7998 7.92252 11.9956 8.07686 11.2196C8.2312 10.4437 8.61216 9.73098 9.17157 9.17157C9.73098 8.61216 10.4437 8.2312 11.2196 8.07686C11.9956 7.92252 12.7998 8.00173 13.5307 8.30448C14.2616 8.60723 14.8864 9.11993 15.3259 9.77772C15.7654 10.4355 16 11.2089 16 12C15.9989 13.0605 15.5771 14.0773 14.8272 14.8272C14.0773 15.5771 13.0605 15.9989 12 16ZM12 10C11.6044 10 11.2178 10.1173 10.8889 10.3371C10.56 10.5568 10.3036 10.8692 10.1522 11.2346C10.0009 11.6001 9.96126 12.0022 10.0384 12.3902C10.1156 12.7781 10.3061 13.1345 10.5858 13.4142C10.8655 13.6939 11.2219 13.8844 11.6098 13.9616C11.9978 14.0387 12.3999 13.9991 12.7654 13.8478C13.1308 13.6964 13.4432 13.44 13.6629 13.1111C13.8827 12.7822 14 12.3956 14 12C13.9994 11.4698 13.7885 10.9614 13.4135 10.5865C13.0386 10.2115 12.5302 10.0006 12 10Z" fill="#FF5942"/>
</svg>
