<svg width="20" height="21" viewBox="0 0 20 21" fill="none" xmlns="http://www.w3.org/2000/svg">
<path d="M10 0.5C11.9778 0.5 13.9112 1.08649 15.5557 2.1853C17.2002 3.28412 18.4819 4.8459 19.2388 6.67317C19.9957 8.50043 20.1937 10.5111 19.8079 12.4509C19.422 14.3907 18.4696 16.1725 17.0711 17.5711C15.6725 18.9696 13.8907 19.922 11.9509 20.3079C10.0111 20.6937 8.00043 20.4957 6.17317 19.7388C4.3459 18.9819 2.78412 17.7002 1.6853 16.0557C0.58649 14.4112 0 12.4778 0 10.5C0 7.84784 1.05357 5.3043 2.92893 3.42893C4.8043 1.55357 7.34784 0.5 10 0.5Z" fill="#F2F3F4"/>
<path d="M13.032 7.16797L6.66802 13.5319" stroke="#B8BCC8" stroke-width="1.5" stroke-linecap="round"/>
<path d="M13.032 13.5312L6.66802 7.16729" stroke="#B8BCC8" stroke-width="1.5" stroke-linecap="round"/>
</svg>
